<svg version="1.1" xmlns="http://www.w3.org/2000/svg" xmlns:xlink="http://www.w3.org/1999/xlink" width="800" height="800"><defs/><g transform="scale(2,2)"><g id="background-4da79fcd"><rect fill="white" stroke="none" x="0" y="0" width="400" height="400" class="dcg-svg-background"/></g><g id="background-images-4da79fcd"/><g id="graphpaper-4da79fcd"><g id="axis-4da79fcd"><g id="yaxis-4da79fcd"><title>Y axis</title><path fill="none" stroke="rgb(0,0,0)" class="dcg-svg-axis-line" paint-order="fill stroke markers" d=" M 0 0 L 0 400" stroke-opacity="0.9" stroke-miterlimit="10" stroke-width="1.5" stroke-dasharray=""/></g><g id="xaxis-4da79fcd"><title>X axis</title><path fill="none" stroke="rgb(0,0,0)" class="dcg-svg-axis-line" paint-order="fill stroke markers" d=" M 0 400 L 400 400" stroke-opacity="0.9" stroke-miterlimit="10" stroke-width="1.5" stroke-dasharray=""/></g><g><g><path fill="none" stroke="rgb(0,0,0)" class="dcg-svg-tickmark" paint-order="fill stroke markers" d="" stroke-opacity="0.9" stroke-miterlimit="2" stroke-width="1.5" stroke-dasharray=""/></g></g></g></g><g id="expressions-4da79fcd"><g id="sketch-4da79fcd"><title>Expression 4</title><path fill="#6042a6" stroke="none" paint-order="stroke fill markers" d="" fill-opacity="0.4"/><g><path fill="none" stroke="#6042a6" class="dcg-svg-curve" paint-order="fill stroke markers" d=" M -0.5 399.5 L -0.5 399.5 L 1.16015625 399.3640218180265 L 2.8203125 398.95645707342555 L 4.48046875 398.2784141644572 L 6.140625 397.3317370719628 L 7.80078125 396.11900034454123 L 9.4609375 394.6435020969008 L 11.12109375 392.9092550404259 L 12.78125 390.92097557035305 L 14.44140625 388.6840709392343 L 16.19921875 386.0513624090569 L 17.95703125 383.1547727223512 L 19.71484375 380.00313311429636 L 21.5703125 376.41033376455795 L 23.42578125 372.55627692278273 L 25.37890625 368.2315340891759 L 27.33203125 363.6481012808583 L 29.3828125 358.5759701858874 L 31.53125 352.99976198870974 L 33.77734375 346.910021465055 L 36.21875 340.02413140049896 L 38.85546875 332.32098435790925 L 41.8828125 323.2023605994367 L 45.49609375 312.0454983411546 L 58.77734375 270.76525404552706 L 61.70703125 262.0835937028543 L 64.24609375 254.81311598376257 L 66.58984375 248.353114956203 L 68.8359375 242.42192541130322 L 70.984375 237.01405118576133 L 73.03515625 232.11709996212443 L 74.98828125 227.71299549442676 L 76.84375 223.77911534935157 L 78.69921875 220.10245224456628 L 80.5546875 216.6954954742244 L 82.3125 213.7271389999728 L 84.0703125 211.02029015690619 L 85.828125 208.58320169094773 L 87.48828125 206.53591041568194 L 89.1484375 204.7414408982259 L 90.80859375 203.20467331263157 L 92.46875 201.92978699614713 L 94.12890625 200.92024908324322 L 95.7890625 200.1788050765205 L 97.44921875 199.70747138014042 L 99.109375 199.50752981608554 L 100.76953125 199.57952413816358 L 102.4296875 199.923258553234 L 104.08984375 200.53779825367994 L 105.75 201.42147195967692 L 107.41015625 202.57187646434517 L 109.0703125 203.98588316942295 L 110.73046875 205.6596465936892 L 112.390625 207.58861483099426 L 114.05078125 209.76754192945825 L 115.80859375 212.34049133440493 L 117.56640625 215.1791760358155 L 119.32421875 218.27494134147958 L 121.1796875 221.8111534326768 L 123.03515625 225.6112675539385 L 124.98828125 229.88228685085372 L 126.94140625 234.41533150036196 L 128.9921875 239.4383520616132 L 131.140625 244.9675011577954 L 133.38671875 251.0130751999209 L 135.73046875 257.57831116367765 L 138.3671875 265.2339282688006 L 141.296875 274.0134340395486 L 144.8125 284.82695255446384 L 150.28125 301.9541228522913 L 155.84765625 319.3098410717954 L 159.16796875 329.4079826308041 L 162 337.768343236509 L 164.5390625 345.00835871263445 L 166.8828125 351.43559901655897 L 169.12890625 357.3313796411656 L 171.27734375 362.70187359398096 L 173.328125 367.56009977954534 L 175.28125 371.92470829514673 L 177.13671875 375.8188417263382 L 178.9921875 379.4537269107905 L 180.75 382.64696123025453 L 182.5078125 385.58669386377676 L 184.265625 388.2639620402854 L 186.0234375 390.670603200543 L 187.68359375 392.68842655816684 L 189.34375 394.45281805930364 L 191.00390625 395.9589793289813 L 192.6640625 397.20281426577543 L 194.32421875 398.1809401814186 L 195.984375 398.8906970002356 L 197.64453125 399.3301544933893 L 199.3046875 399.49811752826014 L 200.96484375 399.39412931868566 L 202.625 399.01847266721967 L 204.28515625 398.37216919603236 L 205.9453125 397.45697656854406 L 207.60546875 396.2753837093475 L 209.265625 394.83060403541936 L 210.92578125 393.1265667170278 L 212.5859375 391.16790599210424 L 214.24609375 388.95994856313825 L 216.00390625 386.3570705971341 L 217.76171875 383.4893794195999 L 219.51953125 380.3656181588175 L 221.375 376.80104533627366 L 223.23046875 372.97388780959636 L 225.18359375 368.6759258364158 L 227.13671875 364.1176012983316 L 229.1875 359.0699304492433 L 231.3359375 353.5171472729893 L 233.58203125 347.44937576601524 L 236.0234375 340.5843171057904 L 238.66015625 332.8999651442009 L 241.58984375 324.09550503357946 L 245.10546875 313.2620121586486 L 251.0625 294.59323256725816 L 256.140625 278.7888623807781 L 259.4609375 268.71503599584645 L 262.29296875 260.38296156977447 L 264.83203125 253.17402164481393 L 267.17578125 246.78008652180978 L 269.32421875 241.16913470623007 L 271.375 236.06067158363538 L 273.42578125 231.21544536147513 L 275.37890625 226.86408449156545 L 277.234375 222.98327343775404 L 279.08984375 219.36238282768602 L 280.84765625 216.1829835298087 L 282.60546875 213.25760438889594 L 284.36328125 210.59516441453346 L 286.12109375 208.2037809571602 L 287.78125 206.20072011652616 L 289.44140625 204.45139260505178 L 291.1015625 202.96055583023102 L 292.76171875 201.73226421754902 L 294.421875 200.76985818421417 L 296.08203125 200.07595505468126 L 297.7421875 199.65244194267046 L 299.40234375 199.5004706190424 L 301.0625 199.62045437948274 L 302.72265625 200.0120669205194 L 304.3828125 200.67424322692503 L 306.04296875 201.60518246809377 L 307.703125 202.80235289551482 L 309.36328125 204.26249872802342 L 311.0234375 205.98164900610524 L 312.68359375 207.95512839117328 L 314.34375 210.1775698804485 L 316.1015625 212.79537544843075 L 317.859375 215.67752944451618 L 319.6171875 218.8152446456201 L 321.47265625 222.39394757381874 L 323.328125 226.23457283275874 L 325.28125 230.54594552629342 L 327.234375 235.11684571102094 L 329.28515625 240.17677049602003 L 331.43359375 245.74129237043545 L 333.6796875 251.82007699366784 L 336.12109375 258.6955837135022 L 338.7578125 266.38936942401256 L 341.6875 275.20198200967366 L 345.30078125 286.3459971297117 L 351.84375 306.8564563599668 L 356.43359375 321.11067970762207 L 359.65625 330.86817403988925 L 362.390625 338.8992040061049 L 364.9296875 346.0976495767967 L 367.2734375 352.4803624686296 L 369.421875 358.079785745644 L 371.47265625 363.1761861236285 L 373.5234375 368.0083667772701 L 375.4765625 372.34643904482255 L 377.33203125 376.21389119358207 L 379.1875 379.8207531480645 L 380.9453125 382.98628749863803 L 382.703125 385.8972856121587 L 384.4609375 388.5448723244759 L 386.21875 390.92097557035305 L 387.87890625 392.9092550404259 L 389.5390625 394.6435020969009 L 391.19921875 396.1190003445413 L 392.859375 397.3317370719628 L 394.51953125 398.2784141644572 L 396.1796875 398.95645707342555 L 397.83984375 399.3640218180265 L 399.5 399.5" stroke-linecap="round" stroke-linejoin="round" stroke-miterlimit="10" stroke-width="2.5" stroke-opacity="0.9" stroke-dasharray=""/></g></g></g><g id="labels-4da79fcd"/></g></svg>