<svg version="1.1" xmlns="http://www.w3.org/2000/svg" xmlns:xlink="http://www.w3.org/1999/xlink" width="800" height="800"><defs/><g transform="scale(2,2)"><g id="background-37997a08"><rect fill="white" stroke="none" x="0" y="0" width="400" height="400" class="dcg-svg-background"/></g><g id="background-images-37997a08"/><g id="graphpaper-37997a08"><g id="axis-37997a08"><g id="yaxis-37997a08"><title>Y axis</title><path fill="none" stroke="rgb(0,0,0)" class="dcg-svg-axis-line" paint-order="fill stroke markers" d=" M 0 0 L 0 400" stroke-opacity="0.9" stroke-miterlimit="10" stroke-width="1.5" stroke-dasharray=""/></g><g id="xaxis-37997a08"><title>X axis</title><path fill="none" stroke="rgb(0,0,0)" class="dcg-svg-axis-line" paint-order="fill stroke markers" d=" M 0 400 L 400 400" stroke-opacity="0.9" stroke-miterlimit="10" stroke-width="1.5" stroke-dasharray=""/></g><g><g><path fill="none" stroke="rgb(0,0,0)" class="dcg-svg-tickmark" paint-order="fill stroke markers" d="" stroke-opacity="0.9" stroke-miterlimit="2" stroke-width="1.5" stroke-dasharray=""/></g></g></g></g><g id="expressions-37997a08"><g id="sketch-37997a08"><title>Expression 4</title><path fill="#6042a6" stroke="none" paint-order="stroke fill markers" d="" fill-opacity="0.4"/><g><path fill="none" stroke="#6042a6" class="dcg-svg-curve" paint-order="fill stroke markers" d=" M -0.5 399.5 L -0.5 399.5 L 0.57421875 399.3719012233873 L 1.6484375 398.98793307948057 L 2.72265625 398.3490792852697 L 3.796875 397.45697656854406 L 4.87109375 396.31391047463626 L 5.9453125 394.92280951091055 L 7.01953125 393.287237643999 L 8.19140625 391.2290997008378 L 9.36328125 388.8912945145203 L 10.53515625 386.28094967633035 L 11.70703125 383.4060237070313 L 12.87890625 380.275281792619 L 14.05078125 376.8982690606823 L 15.3203125 372.97388780959636 L 16.58984375 368.7866174817425 L 17.859375 364.35144010221126 L 19.2265625 359.3160706996342 L 20.69140625 353.64617658531233 L 22.15625 347.7183772079123 L 23.71875 341.14295600976374 L 25.4765625 333.4776884406827 L 27.4296875 324.6897818154217 L 29.7734375 313.8695033150295 L 33.58203125 295.97257611017864 L 37.09765625 279.53982423788693 L 39.34375 269.2994050680772 L 41.19921875 261.0899804983065 L 42.859375 253.99164128736564 L 44.421875 247.56440098344106 L 45.88671875 241.79383271443209 L 47.25390625 236.65542333981674 L 48.62109375 231.77778298628195 L 49.890625 227.49974920386188 L 51.16015625 223.4793318348798 L 52.4296875 219.7309159056609 L 53.6015625 216.52387662054767 L 54.7734375 213.5698181642992 L 55.9453125 210.87774698511197 L 57.1171875 208.4558707741933 L 58.2890625 206.31157344183322 L 59.36328125 204.59541181472997 L 60.4375 203.12239342045606 L 61.51171875 201.89629209609612 L 62.5859375 200.92024908324322 L 63.66015625 200.19676498021482 L 64.734375 199.72769333558085 L 65.80859375 199.51423589941766 L 66.8828125 199.55693954445377 L 67.95703125 199.85569486499577 L 69.03125 200.409736457222 L 70.10546875 201.21764488012943 L 71.1796875 202.27735029210638 L 72.25390625 203.5861377538158 L 73.328125 205.14065418380395 L 74.40234375 206.9369169490127 L 75.57421875 209.16676315054877 L 76.74609375 211.67202083434586 L 77.91796875 214.44505187343958 L 79.08984375 217.47740174305648 L 80.26171875 220.7598252970968 L 81.53125 224.5863605476541 L 82.80078125 228.6809362966805 L 84.0703125 233.02890217966547 L 85.4375 237.97684094193727 L 86.8046875 243.18006559861664 L 88.26953125 249.0136891468732 L 89.83203125 255.50057286903666 L 91.4921875 262.65331700466265 L 93.34765625 270.9122165272919 L 95.49609375 280.74378714174696 L 98.42578125 294.44002509631 L 103.9921875 320.51118368804697 L 106.140625 330.2849640041535 L 107.99609375 338.4758174069856 L 109.65625 345.553871095824 L 111.21875 351.95896826784684 L 112.68359375 357.7061990340775 L 114.05078125 362.8206755050056 L 115.41796875 367.67240741716495 L 116.6875 371.9247082951467 L 117.95703125 375.9178740536117 L 119.2265625 379.63761717231404 L 120.3984375 382.8170164701913 L 121.5703125 385.74239561110403 L 122.7421875 388.40483558546646 L 123.9140625 390.79621904283977 L 125.0859375 392.9092550404259 L 126.16015625 394.5961666311575 L 127.234375 396.0394441697689 L 128.30859375 397.23539001451996 L 129.3828125 398.1809401814185 L 130.45703125 398.87367219407247 L 131.53125 399.31181129001493 L 132.60546875 399.4942349676024 L 133.6796875 399.4204758618364 L 134.75390625 399.09072294174115 L 135.828125 398.50582102622974 L 136.90234375 397.66726861969835 L 137.9765625 396.57721407289506 L 139.05078125 395.2384500788976 L 140.125 393.6544065183021 L 141.19921875 391.8291416719528 L 142.37109375 389.56834292286476 L 143.54296875 387.0329403104111 L 144.71484375 384.2306638685859 L 145.88671875 381.1700572866828 L 147.05859375 377.86045186096385 L 148.328125 374.00577854414666 L 149.59765625 369.88452405244857 L 150.8671875 365.5114342067421 L 152.234375 360.538280627631 L 153.6015625 355.31185312205565 L 155.06640625 349.4557112545083 L 156.62890625 342.9475960569656 L 158.2890625 335.7755724367398 L 160.14453125 327.4992643080274 L 162.29296875 317.65316082611264 L 165.22265625 303.9470771854939 L 170.59375 278.7888623807783 L 172.83984375 268.56912396877317 L 174.6953125 260.3829615697747 L 176.35546875 253.31002092975373 L 177.91796875 246.91049725289164 L 179.3828125 241.1691347062302 L 180.75 236.06067158363552 L 182.1171875 231.2154453614753 L 183.38671875 226.96960276269402 L 184.65625 222.98327343775418 L 185.92578125 219.27072044618853 L 187.09765625 216.0982498893982 L 188.26953125 213.18005782878754 L 189.44140625 210.5250413616928 L 190.61328125 208.14129520547496 L 191.78515625 206.03608701803196 L 192.859375 204.35649790309918 L 193.93359375 202.92066411259162 L 195.0078125 201.73226421754902 L 196.08203125 200.79434286942487 L 197.15625 200.10930299976448 L 198.23046875 199.67889966395217 L 199.3046875 199.50423554480358 L 200.37890625 199.58575812751832 L 201.453125 199.923258553234 L 202.52734375 200.51587215411791 L 203.6015625 201.3620806686245 L 204.67578125 202.45971613124442 L 205.75 203.805966426779 L 206.82421875 205.39738249491108 L 207.8984375 207.22988716661212 L 209.0703125 209.49841079838393 L 210.2421875 212.04133477218238 L 211.4140625 214.85090612259467 L 212.5859375 217.91855891932659 L 213.7578125 221.2349403833424 L 215.02734375 225.09662558200702 L 216.296875 229.22452555427742 L 217.56640625 233.60387070179618 L 218.93359375 238.5832987663546 L 220.30078125 243.81549627248393 L 221.765625 249.67723330272182 L 223.328125 256.19061811468464 L 224.98828125 263.36741944315446 L 226.84375 271.6480310614945 L 229.08984375 281.95057466227286 L 232.1171875 296.1258828148622 L 237.09765625 319.46017576211295 L 239.34375 329.70059493192264 L 241.19921875 337.91001950169345 L 242.859375 345.00835871263433 L 244.421875 351.4355990165588 L 245.88671875 357.2061672855679 L 247.25390625 362.3445766601832 L 248.62109375 367.22221701371797 L 249.890625 371.50025079613806 L 251.16015625 375.5206681651202 L 252.4296875 379.26908409433906 L 253.6015625 382.47612337945225 L 254.7734375 385.43018183570075 L 255.9453125 388.122253014888 L 257.1171875 390.54412922580667 L 258.2890625 392.6884265581668 L 259.36328125 394.40458818527003 L 260.4375 395.87760657954396 L 261.51171875 397.10370790390385 L 262.5859375 398.0797509167567 L 263.66015625 398.8032350197851 L 264.734375 399.27230666441915 L 265.80859375 399.4857641005824 L 266.8828125 399.4430604555462 L 267.95703125 399.1443051350043 L 269.03125 398.590263542778 L 270.10546875 397.78235511987054 L 271.1796875 396.72264970789365 L 272.25390625 395.41386224618424 L 273.328125 393.859345816196 L 274.40234375 392.0630830509873 L 275.57421875 389.8332368494512 L 276.74609375 387.3279791656542 L 277.91796875 384.5549481265604 L 279.08984375 381.5225982569435 L 280.26171875 378.2401747029032 L 281.53125 374.413639452346 L 282.80078125 370.31906370331956 L 284.0703125 365.97109782033453 L 285.4375 361.0231590580628 L 286.8046875 355.81993440138353 L 288.26953125 349.98631085312695 L 289.83203125 343.49942713096345 L 291.4921875 336.34668299533735 L 293.34765625 328.0877834727082 L 295.49609375 318.25621285825315 L 298.42578125 304.55997490369003 L 303.9921875 278.48881631195314 L 306.140625 268.7150359958466 L 307.99609375 260.52418259301453 L 309.65625 253.44612890417613 L 311.21875 247.0410317321532 L 312.68359375 241.29380096592263 L 314.05078125 236.17932449499446 L 315.41796875 231.32759258283508 L 316.6875 227.07529170485336 L 317.95703125 223.08212594638837 L 319.2265625 219.36238282768608 L 320.3984375 216.18298352980875 L 321.5703125 213.25760438889603 L 322.7421875 210.59516441453357 L 323.9140625 208.20378095716026 L 325.0859375 206.09074495957415 L 326.16015625 204.4038333688425 L 327.234375 202.9605558302311 L 328.30859375 201.76460998548 L 329.3828125 200.8190598185815 L 330.45703125 200.12632780592753 L 331.53125 199.68818870998507 L 332.60546875 199.50576503239762 L 333.6796875 199.57952413816358 L 334.75390625 199.90927705825885 L 335.828125 200.49417897377026 L 336.90234375 201.33273138030168 L 337.9765625 202.4227859271049 L 339.05078125 203.76154992110227 L 340.125 205.34559348169793 L 341.19921875 207.1708583280472 L 342.37109375 209.4316570771352 L 343.54296875 211.96705968958895 L 344.71484375 214.7693361314141 L 345.88671875 217.82994271331708 L 347.05859375 221.13954813903618 L 348.328125 224.99422145585325 L 349.59765625 229.11547594755146 L 350.8671875 233.48856579325783 L 352.234375 238.46171937236903 L 353.6015625 243.6881468779442 L 355.06640625 249.54428874549168 L 356.62890625 256.0524039430344 L 358.2890625 263.22442756326024 L 360.14453125 271.5007356919726 L 362.29296875 281.34683917388725 L 365.22265625 295.052922814506 L 370.59375 320.2111376192217 L 372.83984375 330.43087603122683 L 374.6953125 338.6170384302253 L 376.35546875 345.6899790702462 L 377.91796875 352.08950274710844 L 379.3828125 357.8308652937696 L 380.75 362.93932841636445 L 382.1171875 367.7845546385246 L 383.38671875 372.030397237306 L 384.65625 376.0167265622457 L 385.92578125 379.72927955381147 L 387.09765625 382.90175011060165 L 388.26953125 385.8199421712124 L 389.44140625 388.4749586383072 L 390.61328125 390.85870479452495 L 391.78515625 392.96391298196806 L 392.859375 394.64350209690076 L 393.93359375 396.0793358874083 L 395.0078125 397.2677357824509 L 396.08203125 398.2056571305751 L 397.15625 398.8906970002356 L 398.23046875 399.3211003360478 L 399.3046875 399.49576445519637 L 399.5 399.5" stroke-linecap="round" stroke-linejoin="round" stroke-miterlimit="10" stroke-width="2.5" stroke-opacity="0.9" stroke-dasharray=""/></g></g></g><g id="labels-37997a08"/></g></svg>