<svg version="1.1" xmlns="http://www.w3.org/2000/svg" xmlns:xlink="http://www.w3.org/1999/xlink" width="800" height="800"><defs/><g transform="scale(2,2)"><g id="background-90c7f8e0"><rect fill="white" stroke="none" x="0" y="0" width="400" height="400" class="dcg-svg-background"/></g><g id="background-images-90c7f8e0"/><g id="graphpaper-90c7f8e0"><g id="axis-90c7f8e0"><g id="yaxis-90c7f8e0"><title>Y axis</title><path fill="none" stroke="rgb(0,0,0)" class="dcg-svg-axis-line" paint-order="fill stroke markers" d=" M 0 0 L 0 400" stroke-opacity="0.9" stroke-miterlimit="10" stroke-width="1.5" stroke-dasharray=""/></g><g id="xaxis-90c7f8e0"><title>X axis</title><path fill="none" stroke="rgb(0,0,0)" class="dcg-svg-axis-line" paint-order="fill stroke markers" d=" M 0 400 L 400 400" stroke-opacity="0.9" stroke-miterlimit="10" stroke-width="1.5" stroke-dasharray=""/></g><g><g><path fill="none" stroke="rgb(0,0,0)" class="dcg-svg-tickmark" paint-order="fill stroke markers" d="" stroke-opacity="0.9" stroke-miterlimit="2" stroke-width="1.5" stroke-dasharray=""/></g></g></g></g><g id="expressions-90c7f8e0"><g id="sketch-90c7f8e0"><title>Expression 4</title><path fill="#6042a6" stroke="none" paint-order="stroke fill markers" d="" fill-opacity="0.4"/><g><path fill="none" stroke="#6042a6" class="dcg-svg-curve" paint-order="fill stroke markers" d=" M -0.5 399.5 L -0.5 399.5 L 0.28125 399.37954562051726 L 1.0625 399.01847266721967 L 1.84375 398.4176509964781 L 2.625 397.578528040323 L 3.40625 396.5031253194544 L 4.1875 395.1940335732209 L 5.06640625 393.445922360219 L 5.9453125 391.41138516900577 L 6.82421875 389.0966249756185 L 7.703125 386.50869911087113 L 8.58203125 383.65549774368986 L 9.4609375 380.5457198252595 L 10.33984375 377.18884656732325 L 11.31640625 373.181656887737 L 12.29296875 368.8971460889654 L 13.26953125 364.35144010221126 L 14.24609375 359.5616479383869 L 15.3203125 354.03249884220463 L 16.4921875 347.7183772079122 L 17.6640625 341.1429560097637 L 18.93359375 333.7660717311994 L 20.3984375 324.98656596045146 L 22.15625 314.17304744553616 L 24.890625 297.0458771477088 L 27.625 279.99096779838715 L 29.28515625 269.8849111756376 L 30.75 261.23165676349106 L 32.01953125 253.99164128736558 L 33.19140625 247.56440098344103 L 34.265625 241.91918085821547 L 35.33984375 236.53617610850728 L 36.31640625 231.8907296424684 L 37.29296875 227.49974920386188 L 38.26953125 223.37976145157378 L 39.1484375 219.9163095391116 L 40.02734375 216.6954954742244 L 40.90625 213.7271389999728 L 41.78515625 211.02029015690619 L 42.6640625 208.58320169094773 L 43.54296875 206.42330389210161 L 44.421875 204.54718194069633 L 45.30078125 202.96055583023102 L 46.08203125 201.79718573422454 L 46.86328125 200.86919027554015 L 47.64453125 200.1788050765205 L 48.42578125 199.72769333558085 L 49.20703125 199.51694182041766 L 49.98828125 199.5470582498907 L 50.76953125 199.81797007088343 L 51.55078125 200.32902463309009 L 52.33203125 201.07899076130713 L 53.11328125 202.0660617214424 L 53.89453125 203.2878595730959 L 54.7734375 204.93926746194782 L 55.65234375 206.87897578616884 L 56.53125 209.10107068765566 L 57.41015625 211.59877735713673 L 58.2890625 214.3644806894735 L 59.16796875 217.3897485008895 L 60.046875 220.6653572373394 L 60.92578125 224.18132009563874 L 61.90234375 228.35678042547835 L 62.87890625 232.80000776963632 L 63.85546875 237.49427882367118 L 64.9296875 242.92681892163876 L 66.00390625 248.61698574568933 L 67.17578125 255.0877855429571 L 68.4453125 262.3682806048162 L 69.8125 270.47153227455374 L 71.375 279.99096779838726 L 73.5234375 293.3679263697792 L 77.91796875 320.8110319916092 L 79.578125 330.8681740398892 L 80.9453125 338.8992040061049 L 82.21484375 346.09764957679664 L 83.38671875 352.48036246862944 L 84.4609375 358.07978574564385 L 85.53515625 363.4124444863776 L 86.51171875 368.00836677727006 L 87.48828125 372.34643904482255 L 88.46484375 376.410333764558 L 89.34375 379.8207531480645 L 90.22265625 382.98628749863803 L 91.1015625 385.89728561215867 L 91.98046875 388.5448723244758 L 92.859375 390.9209755703531 L 93.73828125 393.0183509938947 L 94.6171875 394.8306040354194 L 95.49609375 396.3522094274417 L 96.27734375 397.45697656854406 L 97.05859375 398.32575677307494 L 97.83984375 398.95645707342555 L 98.62109375 399.3475580573295 L 99.40234375 399.49811752826014 L 100.18359375 399.40777277526456 L 100.96484375 399.076741446766 L 101.74609375 398.5058210262297 L 102.52734375 397.69638691095554 L 103.30859375 396.65038909862517 L 104.08984375 395.3703474895871 L 104.96875 393.65440651830204 L 105.84765625 391.6514039342042 L 106.7265625 389.3674465693954 L 107.60546875 386.809497841829 L 108.484375 383.9853565249707 L 109.36328125 380.90363297059486 L 110.2421875 377.5737228572094 L 111.21875 373.59511253549584 L 112.1953125 369.3376249408973 L 113.171875 364.81728429537765 L 114.1484375 360.0511041404325 L 115.22265625 354.5457972936604 L 116.296875 348.7898192229784 L 117.46875 342.25550934302817 L 118.73828125 334.91635254204897 L 120.203125 326.1712757474898 L 121.86328125 315.991312048997 L 124.3046875 300.727153828572 L 127.625 279.9909677983871 L 129.28515625 269.8849111756375 L 130.75 261.23165676349106 L 132.01953125 253.99164128736567 L 133.19140625 247.56440098344103 L 134.265625 241.9191808582154 L 135.33984375 236.53617610850728 L 136.31640625 231.89072964246844 L 137.29296875 227.4997492038618 L 138.26953125 223.37976145157378 L 139.1484375 219.9163095391116 L 140.02734375 216.69549547422434 L 140.90625 213.7271389999728 L 141.78515625 211.02029015690619 L 142.6640625 208.58320169094773 L 143.54296875 206.42330389210161 L 144.421875 204.54718194069633 L 145.30078125 202.96055583023102 L 146.08203125 201.79718573422454 L 146.86328125 200.86919027554015 L 147.64453125 200.17880507652058 L 148.42578125 199.72769333558085 L 149.20703125 199.51694182041766 L 149.98828125 199.5470582498907 L 150.76953125 199.81797007088343 L 151.55078125 200.32902463309009 L 152.33203125 201.07899076130713 L 153.11328125 202.0660617214424 L 153.89453125 203.2878595730959 L 154.7734375 204.93926746194794 L 155.65234375 206.87897578616892 L 156.53125 209.10107068765566 L 157.41015625 211.59877735713673 L 158.2890625 214.3644806894735 L 159.16796875 217.3897485008896 L 160.046875 220.6653572373394 L 160.92578125 224.18132009563874 L 161.90234375 228.35678042547835 L 162.87890625 232.80000776963632 L 163.85546875 237.4942788236711 L 164.9296875 242.92681892163876 L 166.00390625 248.61698574568933 L 167.17578125 255.08778554295716 L 168.4453125 262.3682806048163 L 169.8125 270.47153227455385 L 171.375 279.9909677983872 L 173.5234375 293.3679263697792 L 177.91796875 320.81103199160924 L 179.578125 330.86817403988925 L 180.9453125 338.8992040061049 L 182.21484375 346.0976495767967 L 183.38671875 352.4803624686296 L 184.4609375 358.079785745644 L 185.53515625 363.4124444863777 L 186.51171875 368.0083667772701 L 187.48828125 372.34643904482255 L 188.46484375 376.41033376455806 L 189.34375 379.8207531480645 L 190.22265625 382.98628749863803 L 191.1015625 385.8972856121587 L 191.98046875 388.5448723244759 L 192.859375 390.92097557035305 L 193.73828125 393.0183509938948 L 194.6171875 394.8306040354194 L 195.49609375 396.3522094274418 L 196.27734375 397.45697656854406 L 197.05859375 398.32575677307494 L 197.83984375 398.95645707342555 L 198.62109375 399.3475580573295 L 199.40234375 399.49811752826014 L 200.18359375 399.40777277526456 L 200.96484375 399.076741446766 L 201.74609375 398.5058210262297 L 202.52734375 397.69638691095554 L 203.30859375 396.65038909862517 L 204.08984375 395.3703474895871 L 204.96875 393.6544065183021 L 205.84765625 391.65140393420415 L 206.7265625 389.3674465693953 L 207.60546875 386.809497841829 L 208.484375 383.9853565249707 L 209.36328125 380.9036329705948 L 210.2421875 377.57372285720936 L 211.21875 373.5951125354959 L 212.1953125 369.3376249408973 L 213.171875 364.8172842953776 L 214.1484375 360.0511041404325 L 215.22265625 354.5457972936604 L 216.296875 348.7898192229784 L 217.46875 342.2555093430281 L 218.73828125 334.916352542049 L 220.203125 326.17127574748974 L 221.86328125 315.99131204899686 L 224.3046875 300.727153828572 L 227.625 279.99096779838715 L 229.28515625 269.8849111756375 L 230.75 261.23165676349106 L 232.01953125 253.99164128736552 L 233.19140625 247.56440098344103 L 234.265625 241.91918085821547 L 235.33984375 236.53617610850728 L 236.31640625 231.8907296424683 L 237.29296875 227.4997492038618 L 238.26953125 223.37976145157373 L 239.1484375 219.9163095391116 L 240.02734375 216.6954954742244 L 240.90625 213.72713899997274 L 241.78515625 211.02029015690619 L 242.6640625 208.58320169094773 L 243.54296875 206.42330389210161 L 244.421875 204.54718194069625 L 245.30078125 202.96055583023102 L 246.08203125 201.79718573422454 L 246.86328125 200.86919027554006 L 247.64453125 200.1788050765205 L 248.42578125 199.7276933355808 L 249.20703125 199.51694182041766 L 249.98828125 199.5470582498907 L 250.76953125 199.81797007088343 L 251.55078125 200.32902463309009 L 252.33203125 201.07899076130713 L 253.11328125 202.0660617214424 L 253.89453125 203.2878595730958 L 254.7734375 204.93926746194794 L 255.65234375 206.87897578616892 L 256.53125 209.10107068765566 L 257.41015625 211.59877735713678 L 258.2890625 214.3644806894735 L 259.16796875 217.38974850088945 L 260.046875 220.66535723733946 L 260.92578125 224.18132009563874 L 261.90234375 228.3567804254783 L 262.87890625 232.80000776963647 L 263.85546875 237.49427882367124 L 264.9296875 242.9268189216388 L 266.00390625 248.61698574568945 L 267.17578125 255.08778554295728 L 268.4453125 262.3682806048163 L 269.8125 270.47153227455397 L 271.375 279.9909677983874 L 273.5234375 293.3679263697793 L 277.91796875 320.8110319916094 L 279.578125 330.8681740398891 L 280.9453125 338.8992040061049 L 282.21484375 346.0976495767968 L 283.38671875 352.48036246862944 L 284.4609375 358.07978574564385 L 285.53515625 363.4124444863775 L 286.51171875 368.0083667772702 L 287.48828125 372.3464390448226 L 288.46484375 376.410333764558 L 289.34375 379.82075314806445 L 290.22265625 382.9862874986381 L 291.1015625 385.8972856121587 L 291.98046875 388.54487232447576 L 292.859375 390.9209755703531 L 293.73828125 393.0183509938948 L 294.6171875 394.83060403541947 L 295.49609375 396.3522094274418 L 296.27734375 397.45697656854406 L 297.05859375 398.32575677307494 L 297.83984375 398.95645707342555 L 298.62109375 399.3475580573295 L 299.40234375 399.49811752826014 L 300.18359375 399.40777277526456 L 300.96484375 399.07674144676594 L 301.74609375 398.50582102622974 L 302.52734375 397.6963869109555 L 303.30859375 396.65038909862517 L 304.08984375 395.3703474895871 L 304.96875 393.6544065183021 L 305.84765625 391.6514039342041 L 306.7265625 389.3674465693953 L 307.60546875 386.80949784182906 L 308.484375 383.9853565249706 L 309.36328125 380.9036329705948 L 310.2421875 377.57372285720925 L 311.21875 373.5951125354958 L 312.1953125 369.3376249408972 L 313.171875 364.8172842953776 L 314.1484375 360.0511041404325 L 315.22265625 354.5457972936605 L 316.296875 348.7898192229784 L 317.46875 342.25550934302817 L 318.73828125 334.91635254204886 L 320.203125 326.17127574748974 L 321.86328125 315.99131204899686 L 324.3046875 300.727153828572 L 327.625 279.99096779838715 L 329.28515625 269.88491117563757 L 330.75 261.23165676349106 L 332.01953125 253.99164128736555 L 333.19140625 247.5644009834409 L 334.265625 241.91918085821536 L 335.33984375 236.5361761085072 L 336.31640625 231.8907296424684 L 337.29296875 227.49974920386188 L 338.26953125 223.37976145157387 L 339.1484375 219.91630953911152 L 340.02734375 216.6954954742244 L 340.90625 213.72713899997265 L 341.78515625 211.02029015690619 L 342.6640625 208.58320169094773 L 343.54296875 206.4233038921015 L 344.421875 204.54718194069633 L 345.30078125 202.96055583023102 L 346.08203125 201.79718573422454 L 346.86328125 200.86919027554015 L 347.64453125 200.1788050765205 L 348.42578125 199.7276933355808 L 349.20703125 199.51694182041766 L 349.98828125 199.5470582498907 L 350.76953125 199.81797007088343 L 351.55078125 200.32902463309009 L 352.33203125 201.07899076130713 L 353.11328125 202.06606172144248 L 353.89453125 203.2878595730958 L 354.7734375 204.93926746194794 L 355.65234375 206.87897578616884 L 356.53125 209.10107068765566 L 357.41015625 211.59877735713673 L 358.2890625 214.3644806894735 L 359.16796875 217.38974850088965 L 360.046875 220.66535723733946 L 360.92578125 224.18132009563874 L 361.90234375 228.3567804254783 L 362.87890625 232.80000776963647 L 363.85546875 237.49427882367124 L 364.9296875 242.9268189216388 L 366.00390625 248.61698574568945 L 367.17578125 255.08778554295728 L 368.4453125 262.3682806048162 L 369.8125 270.47153227455397 L 371.375 279.9909677983874 L 373.5234375 293.3679263697793 L 377.91796875 320.8110319916093 L 379.578125 330.86817403988937 L 380.9453125 338.8992040061049 L 382.21484375 346.0976495767968 L 383.38671875 352.4803624686297 L 384.4609375 358.07978574564413 L 385.53515625 363.4124444863778 L 386.51171875 368.00836677727017 L 387.48828125 372.3464390448226 L 388.46484375 376.410333764558 L 389.34375 379.82075314806445 L 390.22265625 382.9862874986381 L 391.1015625 385.89728561215867 L 391.98046875 388.54487232447593 L 392.859375 390.9209755703531 L 393.73828125 393.0183509938948 L 394.6171875 394.83060403541947 L 395.49609375 396.3522094274418 L 396.27734375 397.4569765685441 L 397.05859375 398.32575677307494 L 397.83984375 398.95645707342555 L 398.62109375 399.3475580573295 L 399.40234375 399.49811752826014 L 399.5 399.5" stroke-linecap="round" stroke-linejoin="round" stroke-miterlimit="10" stroke-width="2.5" stroke-opacity="0.9" stroke-dasharray=""/></g></g></g><g id="labels-90c7f8e0"/></g></svg>